<svg width="84" height="18" viewBox="0 0 84 18" fill="none" xmlns="http://www.w3.org/2000/svg">
<path d="M3.948 3.49802V7.90202H9.78V10.722H3.948V17.322H0V0.690021H10.932L10.524 3.49802H3.948Z" fill="#18181B"/>
<path d="M29.2586 8.99402C29.2586 10.754 29.0066 12.29 28.5026 13.602C27.9986 14.906 27.2506 15.922 26.2586 16.65C25.2746 17.37 24.0546 17.73 22.5986 17.73C21.1506 17.73 19.9306 17.378 18.9386 16.674C17.9466 15.962 17.1986 14.954 16.6946 13.65C16.1906 12.346 15.9386 10.794 15.9386 8.99402C15.9386 7.23402 16.1906 5.70202 16.6946 4.39802C17.1986 3.09402 17.9466 2.08202 18.9386 1.36202C19.9306 0.63402 21.1506 0.27002 22.5986 0.27002C24.0546 0.27002 25.2746 0.62202 26.2586 1.32602C27.2506 2.03002 27.9986 3.03402 28.5026 4.33802C29.0066 5.64202 29.2586 7.19402 29.2586 8.99402ZM25.2266 8.99402C25.2266 6.94602 25.0226 5.45802 24.6146 4.53002C24.2066 3.60202 23.5346 3.13802 22.5986 3.13802C21.6626 3.13802 20.9906 3.60602 20.5826 4.54202C20.1746 5.47002 19.9706 6.95402 19.9706 8.99402C19.9706 11.042 20.1786 12.53 20.5946 13.458C21.0106 14.386 21.6786 14.85 22.5986 14.85C23.5586 14.85 24.2346 14.382 24.6266 13.446C25.0266 12.502 25.2266 11.018 25.2266 8.99402Z" fill="#18181B"/>
<path d="M46.8652 5.74202C46.8652 6.53402 46.7173 7.22602 46.4213 7.81802C46.1253 8.41002 45.7253 8.91002 45.2213 9.31802C44.7173 9.72602 44.1533 10.054 43.5293 10.302L47.8853 17.322H43.4333L39.8333 10.962H38.7173V17.322H34.7812V0.690021H40.0133C42.2773 0.690021 43.9853 1.10202 45.1373 1.92602C46.2893 2.75002 46.8652 4.02202 46.8652 5.74202ZM42.8092 5.74202C42.8092 4.94202 42.5732 4.36202 42.1012 4.00202C41.6372 3.63402 40.9452 3.45002 40.0252 3.45002H38.7173V8.26202H40.1813C41.0373 8.26202 41.6893 8.06202 42.1373 7.66202C42.5853 7.26202 42.8092 6.62202 42.8092 5.74202Z" fill="#18181B"/>
<path d="M64.4239 0.690021L65.3599 17.322H61.9279L61.7239 10.206C61.7079 9.54202 61.6999 8.95002 61.6999 8.43002C61.7079 7.91002 61.7199 7.42202 61.7359 6.96602C61.7519 6.50202 61.7759 6.03802 61.8079 5.57402C61.8479 5.10202 61.8879 4.59002 61.9279 4.03802L60.0559 14.49H57.0799L55.0639 4.03802C55.1119 4.56602 55.1519 5.06602 55.1839 5.53802C55.2239 6.00202 55.2519 6.47002 55.2679 6.94202C55.2839 7.41402 55.2959 7.92202 55.3039 8.46602C55.3119 9.00202 55.3079 9.60202 55.2919 10.266L55.1719 17.322H51.7999L52.7359 0.690021H56.7799L58.6279 11.442L60.3799 0.690021H64.4239Z" fill="#18181B"/>
<path d="M78.5385 11.082V17.322H74.6025V11.106L69.1785 0.690021H73.4865L76.6425 7.85402L79.8225 0.690021H83.9625L78.5385 11.082Z" fill="#18181B"/>
</svg>
